Coordinates
nRows=237
nColumns=2
inDegrees=yes
endheader
time	ankle_angle_r	
3.42619	 19.210638	
3.45946	 19.174534	
3.49272	 19.159639	
3.52598	 19.166629	
3.55925	 19.185786	
3.59251	 19.202741	
3.62578	 19.205264	
3.65904	 19.202537	
3.6923	 19.210720	
3.72557	 19.223028	
3.75883	 19.223421	
3.7921	 19.211794	
3.82536	 19.201902	
3.85862	 19.206072	
3.89189	 19.218279	
3.92515	 19.221455	
3.95842	 19.216698	
3.99168	 19.217322	
4.02494	 19.221394	
4.05821	 19.219920	
4.09147	 19.214302	
4.12474	 19.211476	
4.158	 19.216668	
4.19126	 19.229160	
4.22453	 19.240661	
4.25779	 19.241784	
4.29106	 19.229471	
4.32432	 19.212215	
4.35758	 19.204661	
4.39085	 19.208399	
4.42411	 19.212099	
4.45738	 19.212905	
4.49064	 19.214328	
4.5239	 19.214513	
4.55717	 19.214607	
4.59043	 19.217544	
4.6237	 19.220967	
4.65696	 19.225097	
4.69022	 19.228607	
4.72349	 19.223072	
4.75675	 19.209356	
4.79002	 19.199670	
4.82328	 19.202284	
4.85654	 19.219728	
4.88981	 19.244111	
4.92307	 19.256884	
4.95634	 19.253498	
4.9896	 19.246442	
5.02286	 19.242358	
5.05613	 19.241912	
5.08939	 19.244273	
5.12266	 19.242385	
5.15592	 19.233992	
5.18918	 19.224937	
5.22245	 19.216554	
5.25571	 19.209931	
5.28898	 19.210828	
5.32224	 19.220401	
5.3555	 19.234372	
5.38877	 19.244866	
5.42203	 19.244193	
5.4553	 19.238628	
5.48856	 19.239884	
5.52182	 19.244814	
5.55509	 19.248123	
5.58835	 19.253976	
5.62162	 19.261268	
5.65488	 19.264299	
5.68814	 19.263976	
5.72141	 19.262241	
5.75467	 19.257979	
5.78794	 19.247636	
5.8212	 19.227254	
5.85446	 19.206076	
5.88773	 19.201253	
5.92099	 19.212227	
5.95426	 19.225842	
5.98752	 19.235256	
6.02078	 19.238880	
6.05405	 19.240329	
6.08731	 19.244303	
6.12058	 19.244407	
6.15384	 19.232591	
6.1871	 19.213050	
6.22037	 19.196413	
6.25363	 19.193516	
6.2869	 19.205882	
6.32016	 19.218461	
6.35342	 19.220872	
6.38669	 19.219999	
6.41995	 19.221467	
6.45322	 19.221966	
6.48648	 19.215651	
6.51974	 19.201072	
6.55301	 19.186332	
6.58627	 19.178470	
6.61954	 19.175469	
6.6528	 19.174348	
6.68606	 19.173770	
6.71933	 19.175381	
6.75259	 19.186466	
6.78586	 19.206971	
6.81912	 19.222488	
6.85238	 19.221120	
6.88565	 19.205637	
6.91891	 19.188876	
6.95218	 19.180772	
6.98544	 19.176715	
7.0187	 19.168098	
7.05197	 19.157222	
7.08523	 19.149402	
7.1185	 19.147811	
7.15176	 19.155821	
7.18502	 19.169223	
7.21829	 19.177456	
7.25155	 19.178084	
7.28482	 19.177774	
7.31808	 19.179859	
7.35134	 19.180635	
7.38461	 19.176626	
7.41787	 19.170692	
7.45114	 19.167008	
7.4844	 19.161955	
7.51766	 19.151385	
7.55093	 19.138972	
7.58419	 19.128821	
7.61746	 19.126789	
7.65072	 19.139831	
7.68398	 19.158431	
7.71725	 19.166234	
7.75051	 19.163046	
7.78378	 19.154025	
7.81704	 19.141508	
7.8503	 19.132987	
7.88357	 19.133790	
7.91683	 19.141188	
7.9501	 19.149869	
7.98336	 19.155040	
8.01662	 19.159148	
8.04989	 19.169283	
8.08315	 19.181880	
8.11642	 19.189190	
8.14968	 19.192794	
8.18294	 19.193689	
8.21621	 19.187252	
8.24947	 19.173137	
8.28274	 19.156695	
8.316	 19.147438	
8.34926	 19.153329	
8.38253	 19.166327	
8.41579	 19.173134	
8.44906	 19.175548	
8.48232	 19.178138	
8.51558	 19.179198	
8.54885	 19.178648	
8.58211	 19.174881	
8.61538	 19.168448	
8.64864	 19.166125	
8.6819	 19.165946	
8.71517	 19.160963	
8.74843	 19.157305	
8.7817	 19.163510	
8.81496	 19.178865	
8.84822	 19.199312	
8.88149	 19.212907	
8.91475	 19.207179	
8.94802	 19.189401	
8.98128	 19.173146	
9.01454	 19.162307	
9.04781	 19.160260	
9.08107	 19.164667	
9.11434	 19.163463	
9.1476	 19.154248	
9.18086	 19.146603	
9.21413	 19.146282	
9.24739	 19.150635	
9.28066	 19.152765	
9.31392	 19.152291	
9.34718	 19.156818	
9.38045	 19.165937	
9.41371	 19.171930	
9.44698	 19.172724	
9.48024	 19.170060	
9.5135	 19.168356	
9.54677	 19.173910	
9.58003	 19.186484	
9.6133	 19.199761	
9.64656	 19.207648	
9.67982	 19.209263	
9.71309	 19.210761	
9.74635	 19.214769	
9.77962	 19.215891	
9.81288	 19.213870	
9.84614	 19.211996	
9.87941	 19.207029	
9.91267	 19.199367	
9.94594	 19.194570	
9.9792	 19.194388	
10.0125	 19.201510	
10.0457	 19.214650	
10.079	 19.224287	
10.1123	 19.228251	
10.1455	 19.230240	
10.1788	 19.227475	
10.212	 19.218891	
10.2453	 19.210417	
10.2786	 19.208705	
10.3118	 19.218686	
10.3451	 19.237787	
10.3784	 19.257280	
10.4116	 19.273798	
10.4449	 19.283723	
10.4782	 19.281022	
10.5114	 19.273653	
10.5447	 19.272365	
10.578	 19.267954	
10.6112	 19.251364	
10.6445	 19.234094	
10.6777	 19.227398	
10.711	 19.228868	
10.7443	 19.232021	
10.7775	 19.232189	
10.8108	 19.231309	
10.8441	 19.231527	
10.8773	 19.227263	
10.9106	 19.221528	
10.9439	 19.225765	
10.9771	 19.238507	
11.0104	 19.250451	
11.0436	 19.252879	
11.0769	 19.237723	
11.1102	 19.213873	
11.1434	 19.202951	
11.1767	 19.209817	
11.21	 19.223951	
11.2432	 19.239770	
11.2765	 19.256794	
